<svg id="Слой_1" data-name="Слой 1" xmlns="http://www.w3.org/2000/svg" viewBox="0 0 1080 1080"><defs><style>.cls-1{fill:#2aa2ff;}.cls-2{fill:#3fa9f5;stroke:#2aa2ff;stroke-miterlimit:10;stroke-width:50px;}</style></defs><path class="cls-1" d="M540,266a272.92,272.92,0,1,1-106.63,21.5A272.17,272.17,0,0,1,540,266m0-70c-190,0-344,154-344,344S350,884,540,884,884,730,884,540,730,196,540,196Z"/><line class="cls-2" x1="388.64" y1="541.58" x2="685.33" y2="541.58"/><polygon class="cls-1" points="602.02 468 654.63 541.36 602.02 614.71 768.27 541.36 602.02 468 602.02 468"/><polygon class="cls-1" points="478.86 468.18 312.61 541.54 478.86 614.9 426.25 541.54 478.86 468.18 478.86 468.18"/><path class="cls-1" d="M855,178H225a49,49,0,0,0-49,49V857a49,49,0,0,0,49,49H855a49,49,0,0,0,49-49V227A49,49,0,0,0,855,178ZM537,838c-163.48,0-296-132.52-296-296S373.52,246,537,246,833,378.52,833,542,700.48,838,537,838Z"/></svg>